# AST/ASF file generated using VICON BodyLanguage
# -----------------------------------------------
:version 1.10
:name VICON
:units
  mass 1.0
  length 0.45
  angle deg
:documentation
   .ast/.asf automatically generated from VICON data using
   VICON BodyBuilder and BodyLanguage model FoxedUp or BRILLIANT.MOD
:root
   order TX TY TZ RX RY RZ
   axis XYZ
   position 0 0 0  
   orientation 0 0 0 
:bonedata
  begin
     id 1 
     name lhipjoint
     direction 0.710188 -0.616876 0.339259 
     length 2.5669 
     axis 0 0 0  XYZ
  end
  begin
     id 2 
     name lfemur
     direction 0.34202 -0.939693 0  
     length 7.12796  
     axis 0 0 20  XYZ
    dof rx ry rz
    limits (-160.0 20.0)
           (-70.0 70.0)
           (-60.0 70.0)
  end
  begin
     id 3 
     name ltibia
     direction 0.34202 -0.939693 0   
     length 7.58108   
     axis 0 0 20   XYZ
    dof rx
    limits (-10.0 170.0)
  end
  begin
     id 4 
     name lfoot
     direction 0.0669471 -0.183936 0.980656   
     length 2.17365   
     axis -90 7.62852e-016 20   XYZ
    dof rx rz
    limits (-45.0 90.0)
           (-70.0 20.0)
  end
  begin
     id 5 
     name ltoes
     direction 1.53508e-011 -4.21705e-011 1   
     length 1.09427   
     axis -90 7.62852e-016 20   XYZ
    dof rx
    limits (-90.0 20.0)
  end
  begin
     id 6 
     name rhipjoint
     direction -0.700191 -0.625589 0.34405   
     length 2.53115  
     axis 0 0 0  XYZ 
  end
  begin
     id 7 
     name rfemur
     direction -0.34202 -0.939693 0   
     length 7.33006   
     axis 0 0 -20   XYZ
    dof rx ry rz
    limits (-160.0 20.0)
           (-70.0 70.0)
           (-70.0 60.0)
  end
  begin
     id 8 
     name rtibia
     direction -0.34202 -0.939693 0   
     length 7.64926   
     axis 0 0 -20   XYZ
    dof rx
    limits (-10.0 170.0)
 end
 begin
     id 9 
     name rfoot
     direction -0.0688927 -0.189281 0.979503   
     length 2.20493  
     axis -90 -7.62852e-016 -20   XYZ
    dof rx rz
    limits (-45.0 90.0)
           (-20.0 70.0)
  end
  begin
     id 10 
     name rtoes
     direction -1.53567e-011 -4.21933e-011 1   
     length 1.10919   
     axis -90 -7.62852e-016 -20   XYZ
    dof rx
    limits (-90.0 20.0)
  end
  begin
     id 11 
     name lowerback
     direction -0.0167868 0.989873 -0.140959   
     length 2.14596   
     axis 0 0 0   XYZ
    dof rx ry rz
    limits (-20.0 45.0)
           (-30.0 30.0)
           (-30.0 30.0)
  end
  begin
     id 12 
     name upperback
     direction 0.0129109 0.998033 0.0613525   
     length 2.10457   
     axis 0 0 0   XYZ
    dof rx ry rz
    limits (-20.0 45.0)
           (-30.0 30.0)
           (-30.0 30.0)
  end
  begin
     id 13 
     name thorax
     direction 0.0177047 0.991119 0.131797   
     length 2.17652   
     axis 0 0 0   XYZ
    dof rx ry rz
    limits (-20.0 45.0)
           (-30.0 30.0)
           (-30.0 30.0)
  end
  begin
     id 14 
     name lowerneck
     direction -0.0336893 0.997548 0.0613464   
     length 1.8912   
     axis 0 0 0   XYZ
    dof rx ry rz
    limits (-20.0 45.0)
           (-30.0 30.0)
           (-30.0 30.0)
  end
  begin
     id 15 
     name upperneck
     direction 0.0435909 0.997179 -0.0611028   
     length 1.8829   
     axis 0 0 0   XYZ
    dof rx ry rz
    limits (-20.0 45.0)
           (-30.0 30.0)
           (-30.0 30.0)
  end
  begin
     id 16
     name head
     direction 0.0175076 0.999444 -0.0283782  
     length 1.93197  
     axis 0 0 0   XYZ
    dof rx ry rz
    limits (-20.0 45.0)
           (-30.0 30.0)
           (-30.0 30.0)
  end
  begin
     id 17 
     name lclavicle
     direction 0.919164 0.389875 0.0559876  
     length 3.60004  
     axis 0 0 0   XYZ
    dof ry rz
    limits (-20.0 10.0)
           (0.0 20.0)
  end
  begin
     id 18 
     name lhumerus
     direction 1 -4.48958e-011 6.89191e-027   
     length 5.43301   
     axis 180 -30 -90   XYZ
    dof rx ry rz
    limits (-60.0 90.0)
           (-90.0 90.0)
           (-90.0 90.0)
  end
  begin
     id 19
     name lradius
     direction 1 -4.4897e-011 3.24727e-027   
     length 3.15936   
     axis 180 -30 -90   XYZ
    dof rx
    limits (-10.0 170.0)
  end
  begin
     id 20
     name lwrist
     direction 1 -4.4897e-011 9.00228e-027   
     length 1.57968   
     axis -6.29373e-015 90 90   XYZ
    dof ry
    limits (-180.0 0.0)
 end
  begin
     id 21 
     name lhand
     direction 1 -4.48968e-011 1.80042e-026   
     length 0.712827   
     axis -1.14882e-014 90 90   XYZ
    dof rx rz
    limits (-90.0 90.0)
           (-45.0 45.0)
  end
  begin
     id 22 
     name lfingers
     direction 1 -4.49019e-011 3.60267e-026   
     length 0.574699   
     axis -2.29769e-014 90 90   XYZ
    dof rx
    limits (0.0 90.0)
  end
  begin
     id 23
     name lthumb
     direction 0.707107 -6.3498e-011 0.707107   
     length 0.825157   
     axis -90 45 5.37419e-014   XYZ
    dof rx rz
    limits (-45.0 45.0)
           (-45.0 45.0)
  end
  begin
     id 24 
     name rclavicle
     direction -0.890334 0.455305 -0.00132111   
     length 3.51494  
     axis 0 0 0   XYZ 
    dof ry rz
    limits (-10.0 20.0)
           (-20.0 0.0)
  end
  begin
     id 25 
     name rhumerus
     direction -1 -4.48967e-011 5.07175e-028  
     length 5.34194   
     axis 180 30 90   XYZ
    dof rx ry rz
    limits (-90.0 60.0)
           (-90.0 90.0)
           (-90.0 90.0)
  end
  begin
     id 26 
     name rradius
     direction -1 -4.48955e-011 3.30467e-027   
     length 3.19351   
     axis 180 30 90   XYZ
    dof rx
    limits (-10.0 170.0)
  end
  begin
     id 27 
     name rwrist
     direction -1 -4.48968e-011 9.00208e-027   
     length 1.59676   
     axis -6.29373e-015 -90 -90   XYZ
    dof ry
    limits (-180.0 0.0)
  end
  begin
     id 28
     name rhand
     direction -1 -4.49e-011 1.80099e-026   
     length 0.743862   
     axis -1.14882e-014 -90 -90   XYZ
    dof rx rz
    limits (-90.0 90.0)
           (-45.0 45.0)
  end
  begin
     id 29
     name rfingers
     direction -1 -4.49009e-011 3.6023e-026   
     length 0.599721   
     axis -2.29769e-014 -90 -90   XYZ
    dof rx
    limits (0.0 90.0)
  end
  begin
     id 30
     name rthumb
     direction -0.707107 -6.35025e-011 0.707107   
     length 0.861083   
     axis -90 -45 -5.37419e-014   XYZ
    dof rx rz
    limits (-45.0 45.0)
           (-45.0 45.0)
  end
:hierarchy
  begin
    root lhipjoint rhipjoint lowerback
    lhipjoint lfemur
    lfemur ltibia
    ltibia lfoot
    lfoot ltoes
    rhipjoint rfemur
    rfemur rtibia
    rtibia rfoot
    rfoot rtoes
    lowerback upperback
    upperback thorax
    thorax lowerneck lclavicle rclavicle
    lowerneck upperneck
    upperneck head
    lclavicle lhumerus
    lhumerus lradius
    lradius lwrist
    lwrist lhand lthumb
    lhand lfingers
    rclavicle rhumerus
    rhumerus rradius
    rradius rwrist
    rwrist rhand rthumb
    rhand rfingers
  end

#!OML:ASF H:\Martial Arts Walks\Project 1\Capture day 1\Session 1\male.ASF
:FULLY-SPECIFIED
:DEGREES
813
root -4.04177 16.0772 -24.7653 4.03875 -17.0235 -2.21773
lowerback 13.1147 -4.24542 -5.33913
upperback -0.426816 -6.10071 5.54068
thorax -6.62715 -2.73157 10.1251
lowerneck 8.4414 -16.5751 -17.8973
upperneck 4.57991 -24.621 18.4721
head 4.55148 -12.5835 7.17019
rclavicle -2.98177e-014 -2.8625e-014
rhumerus -68.3699 31.6033 -94.8952
rradius 106.581
rwrist -76.5262
rhand -16.747 -32.7725
rfingers 7.12502
rthumb 9.47945 -62.5393
lclavicle -2.98177e-014 -2.8625e-014
lhumerus 30.072 -60.7488 56.0794
lradius 70.9637
lwrist -27.1089
lhand -24.231 372.213
lfingers 7.12502
lthumb 2.25429 42.1803
rfemur -32.8013 -5.34711 15.6933
rtibia 56.8713
rfoot -20.6526 -4.67781
rtoes -8.54874
lfemur -23.1988 8.09529 -13.7641
ltibia 54.0505
lfoot -27.1275 12.6817
ltoes -7.74769
814
root -4.07748 16.0937 -24.7603 4.02588 -17.0036 -2.20109
lowerback 12.9489 -4.27899 -5.53649
upperback -0.460585 -6.17317 5.5156
thorax -6.53797 -2.76589 10.2042
lowerneck 8.45236 -16.5936 -17.9196
upperneck 4.83397 -24.6792 18.3706
head 4.62624 -12.6103 7.1278
rclavicle -1.12512e-013 5.24792e-014
rhumerus -68.4934 31.5259 -95.1891
rradius 106.439
rwrist -75.7366
rhand -16.1574 -32.7492
rfingers 7.12502
rthumb 10.0483 -62.4893
lclavicle -1.12512e-013 5.24792e-014
lhumerus 29.8949 -60.8065 56.24
lradius 71.2529
lwrist -25.1285
lhand -22.0712 372.152
lfingers 7.12502
lthumb 4.34002 42.0875
rfemur -32.6423 -5.31997 15.8079
rtibia 56.6711
rfoot -20.5498 -4.66656
rtoes -8.35781
lfemur -22.9774 8.16939 -13.6359
ltibia 53.722
lfoot -27.0813 12.5058
ltoes -7.5643
815
root -4.11213 16.1068 -24.7558 4.00722 -16.9394 -2.18845
lowerback 12.7638 -4.33811 -5.68325
upperback -0.473621 -6.27181 5.47118
thorax -6.41707 -2.81792 10.2312
lowerneck 8.63209 -16.4917 -18.0003
upperneck 4.87838 -24.5915 18.4708
head 4.61818 -12.579 7.19759
rclavicle -1.12214e-013 7.23576e-014
rhumerus -68.7193 31.4844 -95.5183
rradius 106.406
rwrist -74.9509
rhand -15.7351 -32.6854
rfingers 7.12502
rthumb 10.4557 -62.4054
lclavicle -1.12214e-013 7.23576e-014
lhumerus 29.7561 -60.9284 56.2839
lradius 71.2201
lwrist -24.7428
lhand -22.266 372.327
lfingers 7.12502
lthumb 4.15189 42.2663
rfemur -32.4456 -5.3876 15.9384
rtibia 56.4802
rfoot -20.4788 -4.81088
rtoes -8.95108
lfemur -22.7953 8.20384 -13.5131
ltibia 53.4174
lfoot -26.9973 12.367
ltoes -7.26386
816
root -4.147 16.121 -24.7535 4.01562 -16.9412 -2.24396
lowerback 12.5763 -4.38025 -5.79567
upperback -0.474091 -6.34035 5.454
thorax -6.28785 -2.85707 10.2629
lowerneck 8.55796 -16.5029 -18.0058
upperneck 5.19191 -24.6244 18.2807
head 4.70604 -12.5881 7.12056
rclavicle -5.59579e-014 -4.85035e-014
rhumerus -68.8165 31.5244 -95.856
rradius 106.257
rwrist -74.2943
rhand -15.6963 -32.8413
rfingers 7.12502
rthumb 10.4931 -62.5594
lclavicle -5.59579e-014 -4.85035e-014
lhumerus 30.0457 -61.1748 55.8896
lradius 71.1339
lwrist -24.5733
lhand -22.9003 374.155
lfingers 7.12502
lthumb 3.53941 44.1051
rfemur -32.3005 -5.32929 16.1237
rtibia 56.3034
rfoot -20.4447 -4.73794
rtoes -8.2566
lfemur -22.6034 8.2826 -13.3227
ltibia 53.1146
lfoot -26.9174 12.2831
ltoes -7.12512
817
root -4.17772 16.1337 -24.75 3.97126 -16.9302 -2.2505
lowerback 12.4397 -4.38847 -5.8897
upperback -0.474032 -6.36329 5.41059
thorax -6.2012 -2.87162 10.2547
lowerneck 8.56393 -16.4808 -18.031
upperneck 5.38904 -24.6222 18.2269
head 4.76027 -12.5862 7.10311
rclavicle 4.27387e-014 -3.97569e-014
rhumerus -68.9714 31.4466 -96.1134
rradius 106.171
rwrist -73.7189
rhand -15.609 -33.004
rfingers 7.12502
rthumb 10.5773 -62.7178
lclavicle 4.27387e-014 -3.97569e-014
lhumerus 30.134 -61.2961 55.7649
lradius 71.1012
lwrist -24.2892
lhand -23.0629 373.8
lfingers 7.12502
lthumb 3.38237 43.7532
rfemur -32.1116 -5.38398 16.246
rtibia 56.1245
rfoot -20.4105 -4.69572
rtoes -8.02782
lfemur -22.3697 8.31703 -13.1935
ltibia 52.8219
lfoot -26.8769 12.1684
ltoes -6.89264
818
root -4.2068 16.1477 -24.7481 3.95303 -16.8715 -2.2485
lowerback 12.3384 -4.37949 -6.00051
upperback -0.497857 -6.36556 5.38466
thorax -6.16073 -2.87138 10.2795
lowerneck 8.5379 -16.5174 -18.0552
upperneck 5.60415 -24.6921 18.1216
head 4.8315 -12.6173 7.05521
rclavicle 3.97569e-015 -5.56597e-015
rhumerus -69.0848 31.306 -96.2789
rradius 106.058
rwrist -73.364
rhand -15.4146 -33.1513
rfingers 7.12502
rthumb 10.7648 -62.8555
lclavicle 3.97569e-015 -5.56597e-015
lhumerus 30.5527 -61.504 55.4739
lradius 70.9439
lwrist -24.2652
lhand -23.1231 374.035
lfingers 7.12502
lthumb 3.32426 43.9892
rfemur -31.9788 -5.52072 16.3709
rtibia 55.9551
rfoot -20.3487 -4.69327
rtoes -7.97887
lfemur -22.1729 8.28824 -13.0861
ltibia 52.5284
lfoot -26.8186 12.1133
ltoes -6.79414
819
root -4.23271 16.1609 -24.7464 3.91507 -16.8144 -2.31381
lowerback 12.2019 -4.37034 -5.93962
upperback -0.458228 -6.343 5.31594
thorax -6.06056 -2.87061 10.1444
lowerneck 8.63849 -16.5274 -18.0462
upperneck 5.56054 -24.7235 18.202
head 4.81772 -12.6388 7.08482
rclavicle -2.85256e-014 3.73715e-014
rhumerus -69.0582 31.1071 -96.3848
rradius 105.958
rwrist -73.2296
rhand -15.1904 -33.3546
rfingers 7.12502
rthumb 10.9811 -63.0474
lclavicle -2.85256e-014 3.73715e-014
lhumerus 31.1573 -61.7071 54.8796
lradius 70.8766
lwrist -24.4243
lhand -23.0394 374.437
lfingers 7.12502
lthumb 3.40503 44.3897
rfemur -31.7959 -5.657 16.552
rtibia 55.7726
rfoot -20.3258 -4.62468
rtoes -7.48545
lfemur -21.9479 8.21458 -12.9101
ltibia 52.2519
lfoot -26.7691 12.0528
ltoes -6.69092
820
root -4.257 16.1712 -24.7464 3.86755 -16.7956 -2.36094
lowerback 12.1345 -4.38151 -5.97366
upperback -0.435303 -6.36174 5.29497
thorax -5.9928 -2.88426 10.1327
lowerneck 8.68309 -16.4861 -18.0202
upperneck 5.55042 -24.6652 18.16
head 4.7878 -12.6131 7.08347
rclavicle 4.27387e-014 -4.77083e-015
rhumerus -69.0951 31.0709 -96.4349
rradius 105.952
rwrist -73.2528
rhand -15.0599 -33.6665
rfingers 7.12502
rthumb 11.107 -63.3525
lclavicle 4.27387e-014 -4.77083e-015
lhumerus 31.3699 -61.714 54.7855
lradius 70.5899
lwrist -24.7606
lhand -23.032 374.579
lfingers 7.12502
lthumb 3.41223 44.531
rfemur -31.615 -5.75571 16.7076
rtibia 55.5927
rfoot -20.2957 -4.65322
rtoes -7.36696
lfemur -21.7194 8.15542 -12.7567
ltibia 52.0021
lfoot -26.7253 12.0091
ltoes -6.62569
